# xmcd
#
# Track frame offsets:
#  150
#  14398
#  26838
#  41265
#  53004
#  66350
#
# Disc length: 1050 seconds
#
# Revision: 0
# Processed by: cddbd v1.5.2PL0 Copyright (c) Steve Scherf et al.
# Submitted via: AltoMP3_Maker 3.0
#
DISCID=47041806
DTITLE=Girl Howdy - Honky Tonk Hair
DYEAR=1900
DGENRE=
TTITLE0=Honky Tonk Hair
TTITLE1=Tryin' to Forget the Blues
TTITLE2=Eenie Meenie Miney
TTITLE3=Honky Tonk Merry Go Round
TTITLE4=Apartment Number 9
TTITLE5=Invitation to the Blues
EXTD=
EXTT0=
EXTT1=
EXTT2=
EXTT3=
EXTT4=
EXTT5=
PLAYORDER=
